<?xml version="1.0" encoding="utf-8"?>
<!-- Generator: Adobe Illustrator 16.0.0, SVG Export Plug-In . SVG Version: 6.00 Build 0)  -->
<!DOCTYPE svg PUBLIC "-//W3C//DTD SVG 1.1//EN" "http://www.w3.org/Graphics/SVG/1.1/DTD/svg11.dtd">
<svg version="1.1" id="Calque_1" xmlns="http://www.w3.org/2000/svg" xmlns:xlink="http://www.w3.org/1999/xlink" x="0px" y="0px"
	 width="1041px" height="1000px" viewBox="0 0 1041 1000" enable-background="new 0 0 1041 1000" xml:space="preserve">
<g>
	<path fill="#FFFFFF" d="M1041.25,603.75c0,71.67-25.42,133.13-76.25,184.37C914.17,839.38,852.92,865,781.25,865h-572.5
		c-57.5,0-106.67-20.42-147.5-61.25S0,713.75,0,656.25c0-48.33,14.58-91.04,43.75-128.13c29.17-37.08,66.67-61.45,112.5-73.12v-7.5
		c0-86.67,30.63-160.42,91.87-221.25C309.38,165.42,382.92,135,468.75,135c66.67,0,126.87,19.38,180.63,58.12
		C703.12,231.88,740.83,282.5,762.5,345c76.67-5.83,142.29,16.88,196.88,68.12C1013.96,464.38,1041.25,527.92,1041.25,603.75z"/>
	<path d="M959.38,413.12C904.79,361.88,839.17,339.17,762.5,345c-21.67-62.5-59.38-113.12-113.12-151.88
		C595.62,154.38,535.42,135,468.75,135c-85.83,0-159.37,30.42-220.63,91.25c-61.24,60.83-91.87,134.58-91.87,221.25v7.5
		c-45.83,11.67-83.33,36.04-112.5,73.12C14.58,565.21,0,607.92,0,656.25c0,57.5,20.42,106.67,61.25,147.5s90,61.25,147.5,61.25
		h572.5c71.67,0,132.92-25.62,183.75-76.88c50.83-51.24,76.25-112.7,76.25-184.37C1041.25,527.92,1013.96,464.38,959.38,413.12z
		 M891.88,714.38C861.46,744.79,824.58,760,781.25,760h-572.5c-29.17,0-53.96-10.21-74.37-30.62
		c-20.42-20.42-30.63-44.8-30.63-73.13s10-52.92,30-73.75s43.33-31.25,70-31.25l73.75,1.25L265,490c-3.33-18.33-5-32.5-5-42.5
		c0-57.5,20.42-106.46,61.25-146.88c40.83-40.41,90-60.62,147.5-60.62c50.83,0,95.42,16.46,133.75,49.38
		c38.33,32.91,62.08,74.37,71.25,124.37l8.75,57.5L738.75,455c15.83-5,30-7.5,42.5-7.5c43.33,0,80.21,15.21,110.63,45.62
		c30.41,30.42,45.62,67.3,45.62,110.63S922.29,683.96,891.88,714.38z"/>
</g>
</svg>
